<?xml version="1.0" encoding="UTF-8" standalone="no"?>
<svg
   xmlns:dc="http://purl.org/dc/elements/1.1/"
   xmlns:cc="http://creativecommons.org/ns#"
   xmlns:rdf="http://www.w3.org/1999/02/22-rdf-syntax-ns#"
   xmlns:svg="http://www.w3.org/2000/svg"
   xmlns="http://www.w3.org/2000/svg"
   xmlns:sodipodi="http://sodipodi.sourceforge.net/DTD/sodipodi-0.dtd"
   xmlns:inkscape="http://www.inkscape.org/namespaces/inkscape"
   width="704"
   height="704"
   version="1.1"
   id="svg936"
   sodipodi:docname="acorn2.svg"
   inkscape:version="0.92.2 2405546, 2018-03-11">
  <metadata
     id="metadata942">
    <rdf:RDF>
      <cc:Work
         rdf:about="">
        <dc:format>image/svg+xml</dc:format>
        <dc:type
           rdf:resource="http://purl.org/dc/dcmitype/StillImage" />
        <dc:title></dc:title>
      </cc:Work>
    </rdf:RDF>
  </metadata>
  <defs
     id="defs940" />
  <sodipodi:namedview
     pagecolor="#ffffff"
     bordercolor="#666666"
     borderopacity="1"
     objecttolerance="10"
     gridtolerance="10"
     guidetolerance="10"
     inkscape:pageopacity="0"
     inkscape:pageshadow="2"
     inkscape:window-width="1900"
     inkscape:window-height="1037"
     id="namedview938"
     showgrid="false"
     inkscape:zoom="21.454545"
     inkscape:cx="102.3029"
     inkscape:cy="154.69624"
     inkscape:window-x="1930"
     inkscape:window-y="10"
     inkscape:window-maximized="0"
     inkscape:current-layer="svg936" />
  <path
     style="fill:none;stroke:#000000;stroke-width:0.40818898;stroke-miterlimit:4;stroke-dasharray:none"
     d="m 106.42915,546.49757 c 0.29976,-0.31122 0.85847,-0.2963 1.28308,-0.32555 0.099,-0.007 0.37681,-0.0688 0.42959,0.0368 0.0568,0.11365 0.0172,0.31748 8.1e-4,0.43797 -0.0422,0.30991 -0.0275,0.65366 -0.10151,0.95485 -0.0278,0.11292 -0.11563,0.27411 -0.24053,0.30051 -0.34608,0.0732 -0.68997,-0.36499 -0.89401,-0.56906 -0.10993,-0.10992 -0.24066,-0.21714 -0.31158,-0.35807 -0.0691,-0.13717 -0.0765,-0.32211 -0.18107,-0.43929 -0.1497,-0.16775 -0.43839,-0.1554 -0.6114,-0.30991 -0.2067,-0.18461 -0.48429,-0.41255 -0.62405,-0.65323 -0.0782,-0.13461 -0.0809,-0.31594 -0.17692,-0.43929 -0.10721,-0.13768 -0.33769,-0.13586 -0.48211,-0.21974 -0.24068,-0.13977 -0.46862,-0.41736 -0.65324,-0.62405 -0.14233,-0.15934 -0.14296,-0.5027 -0.31411,-0.61412 -0.21267,-0.13846 -0.50936,-0.15355 -0.72951,-0.28935 -0.27365,-0.1688 -0.4139,-0.77385 -0.22561,-1.03607 0.31563,-0.4396 0.7856,-0.36396 1.185,-0.62361 0.22137,-0.14391 0.19446,-0.47465 0.41237,-0.61914 0.59923,-0.39729 1.63107,-0.50869 2.32432,-0.36845 0.20052,0.0406 0.52579,0.0654 0.67466,0.21705 0.17868,0.18202 0.0598,0.29561 0.0406,0.49897 -0.0336,0.35467 -0.0741,0.71783 -0.0898,1.07421 -0.005,0.11073 -0.0748,0.30272 0.002,0.39975 0.073,0.0922 0.28876,0.0446 0.38708,0.0306 0.24897,-0.0357 0.49738,-0.0514 0.74597,-0.0808 0.0891,-0.0105 0.23123,-0.0532 0.31024,0.009 0.0738,0.0585 0.0508,0.21553 0.0451,0.29756 -0.0198,0.29033 -0.0752,0.57407 -0.088,0.86533 -0.003,0.0789 -0.0597,0.23669 0.002,0.30171 0.0613,0.0644 0.27598,0.0294 0.35712,0.0239 0.28564,-0.0196 0.82857,-0.22045 1.09455,-0.0983 0.11873,0.0545 0.0604,0.27198 0.0478,0.36946 -0.0374,0.28747 -0.0908,0.57551 -0.0984,0.86534 -0.002,0.0675 -0.0476,0.21287 0.002,0.26771 0.0693,0.0759 0.29798,0.026 0.38591,0.0134 0.24898,-0.0357 0.49739,-0.0514 0.74598,-0.0807 0.0954,-0.0113 0.25566,-0.0575 0.34007,0.009 0.0925,0.0733 0.0441,0.28836 0.0306,0.38707 -0.0354,0.25981 -0.0571,0.51502 -0.075,0.77582 -0.006,0.0828 -0.0516,0.20583 -0.009,0.28383 0.0472,0.0864 0.28753,0.0474 0.3698,0.0417 0.26948,-0.0185 0.53576,-0.0709 0.80565,-0.0895 0.0835,-0.006 0.20918,-0.0521 0.28383,0.004 0.0759,0.0566 0.0454,0.21568 0.0443,0.29744 -0.004,0.29048 -0.0846,0.57485 -0.0895,0.86533 -10e-4,0.0798 -0.0642,0.29102 0.0182,0.34008 0.14794,0.0881 0.44914,-0.0214 0.60851,-0.0366 0.12102,-0.0116 0.38355,0.0298 0.47659,-0.0655 0.0847,-0.0867 0.009,-0.34049 -0.001,-0.44687 -0.0281,-0.29681 -0.12893,-0.77006 -0.3171,-1.00814 -0.20505,-0.25948 -0.493,-0.22087 -0.66535,0.0234"
     id="path1633"
     inkscape:connector-curvature="0" />
  <path
     style="fill:none;stroke:#000000;stroke-width:0.40818898;stroke-miterlimit:4;stroke-dasharray:none"
     d="m 105.71301,540.73862 0.001,0.78259 0.38665,0.0204 1.10405,-0.11669"
     id="path1631"
     inkscape:connector-curvature="0" />
  <path
     style="fill:none;stroke:#000000;stroke-width:0.40818898;stroke-miterlimit:4;stroke-dasharray:none"
     d="m 107.35416,541.21605 c 0.48265,0.0394 1.07412,0.22189 1.34745,0.65657 0.11801,0.18774 0.10199,0.50384 0.25918,0.66103 0.14681,0.14678 0.45018,0.14535 0.6313,0.24233 0.23117,0.12374 0.35766,0.39355 0.62662,0.46262 0.18781,0.0482 0.32128,-0.24241 0.37753,-0.3814 0.14382,-0.35547 0.15958,-0.69517 0.15958,-1.07421 0,-0.11792 -0.0424,-0.36906 0.075,-0.44558 0.14007,-0.0913 0.75204,0.0345 0.85424,0.16011 0.0834,0.10252 0.056,0.2821 0.0554,0.40483 -0.003,0.61439 -0.23704,1.27863 -0.61672,1.76051 -0.14412,0.18291 -0.53862,0.53668 -0.76053,0.23429 -0.11867,-0.16173 -0.0848,-0.40447 -0.0848,-0.59236"
     id="path1629"
     inkscape:connector-curvature="0" />
  <path
     style="fill:none;stroke:#000000;stroke-width:0.40818898;stroke-miterlimit:4;stroke-dasharray:none"
     d="m 105.68317,541.54428 c -0.15489,0.1677 -0.38223,0.14089 -0.59678,0.15037 -0.38952,0.0172 -0.87539,0.24042 -1.19356,-0.0609"
     id="path1627"
     inkscape:connector-curvature="0" />
  <path
     style="fill:none;stroke:#000000;stroke-width:0.40818898;stroke-miterlimit:4;stroke-dasharray:none"
     d="m 105.56382,541.69348 c 0,0.3824 -0.0859,0.75412 -0.0895,1.13388 -8.1e-4,0.083 -0.0652,0.32032 0.0181,0.36992 0.21631,0.12875 0.83878,-0.0531 1.08594,-0.0766 0.10231,-0.01 0.30949,-0.0749 0.38707,0.0231 0.0755,0.0954 0.0184,0.29174 0.005,0.39976 -0.0329,0.27526 -0.1719,0.73908 -0.0846,1.00504 0.0389,0.11852 0.31375,0.0719 0.40822,0.0606 0.3319,-0.0397 0.98666,0.009 1.22341,-0.23018"
     id="path1625"
     inkscape:connector-curvature="0" />
  <path
     style="fill:none;stroke:#000000;stroke-width:0.40818898;stroke-miterlimit:4;stroke-dasharray:none"
     d="m 103.80331,541.75315 c 0.27121,0.32069 0.0361,0.87166 0.0298,1.25325 -0.002,0.10574 -0.0786,0.34013 0.0181,0.41691 0.18062,0.14343 0.71924,-0.0537 0.93686,-0.0589 0.22451,-0.005 0.48071,-5.6e-4 0.65646,-0.14919"
     id="path1623"
     inkscape:connector-curvature="0" />
  <path
     style="fill:none;stroke:#000000;stroke-width:0.40818898;stroke-miterlimit:4;stroke-dasharray:none"
     d="m 108.93563,542.55881 -0.29839,0.29839"
     id="path1621"
     inkscape:connector-curvature="0" />
  <path
     style="fill:none;stroke:#000000;stroke-width:0.40818898;stroke-miterlimit:4;stroke-dasharray:none"
     d="m 107.08561,542.97656 -0.0895,0.11935"
     id="path1619"
     inkscape:connector-curvature="0" />
  <path
     style="fill:none;stroke:#000000;stroke-width:0.40818898;stroke-miterlimit:4;stroke-dasharray:none"
     d="m 102.75894,543.36446 c -0.92116,0.92117 -1.94819,1.80419 -2.67492,2.8944 -1.368306,2.05266 -1.676967,4.66931 -0.475875,6.86299 0.241905,0.44185 0.0769,1.25813 0.525405,1.55252 0.34628,0.22732 0.84424,0.12199 1.22296,0.28151 0.51323,0.21621 0.97045,0.52248 1.52179,0.65293 2.39876,0.5676 4.76086,-0.26503 6.53476,-1.91734 0.45863,-0.4272 0.89932,-0.87216 1.34276,-1.3156 0.13466,-0.13467 0.42225,-0.33411 0.44514,-0.53711 0.03,-0.26592 -0.26509,-0.42052 -0.36881,-0.62662 -0.0698,-0.1386 -0.0751,-0.35189 -0.20398,-0.45227 -0.154,-0.11989 -0.37335,-0.11168 -0.52881,-0.24074 -0.21792,-0.18085 -0.5112,-0.43386 -0.6539,-0.67958 -0.0872,-0.15018 -0.0854,-0.37219 -0.21973,-0.49205 -0.13493,-0.1204 -0.34936,-0.11545 -0.49897,-0.2152 -0.40677,-0.27118 -0.75547,-0.69776 -0.86533,-1.17262"
     id="path1617"
     inkscape:connector-curvature="0" />
  <path
     style="fill:none;stroke:#000000;stroke-width:0.40818898;stroke-miterlimit:4;stroke-dasharray:none"
     d="m 105.35494,543.36446 c -0.13024,0.54707 0.0617,1.30824 -0.35807,1.73067"
     id="path1615"
     inkscape:connector-curvature="0" />
  <path
     style="fill:none;stroke:#000000;stroke-width:0.40818898;stroke-miterlimit:4;stroke-dasharray:none"
     d="m 103.80331,543.42414 -0.20887,0.23872"
     id="path1613"
     inkscape:connector-curvature="0" />
  <path
     style="fill:none;stroke:#000000;stroke-width:0.40818898;stroke-miterlimit:4;stroke-dasharray:none"
     d="m 110.36791,543.93141 -0.29839,0.32823"
     id="path1611"
     inkscape:connector-curvature="0" />
  <path
     style="fill:none;stroke:#000000;stroke-width:0.40818898;stroke-miterlimit:4;stroke-dasharray:none"
     d="m 110.84534,543.99108 c 0.22307,0.22308 0.52406,0.4475 0.69098,0.71614 0.11485,0.18489 0.10148,0.4831 0.25497,0.63966 0.14911,0.15206 0.45487,0.13861 0.63552,0.25083 0.45856,0.2849 0.61352,0.73088 0.71614,1.22809"
     id="path1609"
     inkscape:connector-curvature="0" />
  <path
     style="fill:none;stroke:#000000;stroke-width:0.40818898;stroke-miterlimit:4;stroke-dasharray:none"
     d="m 108.39853,544.52819 c 0,0.38239 -0.0845,0.75352 -0.0896,1.13388 -0.001,0.0983 -0.0724,0.31454 0.0395,0.36992 0.27291,0.13511 0.82592,-0.0943 1.12437,-0.10136 0.0845,-0.002 0.26577,-0.0564 0.32739,0.0184 0.0599,0.0727 0.0292,0.22528 0.018,0.30979 -0.0358,0.26926 -0.0563,0.53626 -0.0819,0.80565 -0.008,0.0891 -0.077,0.31149 0.0231,0.36992 0.2408,0.14063 0.81658,-0.0605 1.08606,-0.0727 0.0959,-0.004 0.25616,-0.0638 0.34007,0.002 0.0739,0.058 0.0508,0.21582 0.0452,0.29752 -0.0199,0.29034 -0.0753,0.57408 -0.088,0.86534 -0.004,0.0904 -0.0658,0.25954 0.0192,0.32739 0.0829,0.0662 0.24611,0.0223 0.34005,0.009 0.26706,-0.038 0.53591,-0.0901 0.80565,-0.098 0.0944,-0.003 0.28607,-0.0694 0.34008,0.0398 0.0637,0.12878 -0.005,0.36212 -0.0245,0.49774 -0.0559,0.3968 -0.10199,0.77827 -0.187,1.16373 -0.0846,0.38382 0.05,0.8625 -0.0653,1.2234 -0.1193,0.3735 -0.3766,0.58138 -0.74956,0.34953 -0.12535,-0.0779 -0.26324,-0.12293 -0.38791,-0.20034"
     id="path1607"
     inkscape:connector-curvature="0" />
  <path
     style="fill:none;stroke:#000000;stroke-width:0.40818898;stroke-miterlimit:4;stroke-dasharray:none"
     d="m 106.87674,544.61771 c -0.13735,0.16241 -0.1056,0.30853 -0.13201,0.50726 -0.0499,0.37502 -0.10566,0.75532 -0.10671,1.13389"
     id="path1605"
     inkscape:connector-curvature="0" />
  <path
     style="fill:none;stroke:#000000;stroke-width:0.40818898;stroke-miterlimit:4;stroke-dasharray:none"
     d="m 105.23559,544.85642 1.52179,-0.11936"
     id="path1603"
     inkscape:connector-curvature="0" />
  <path
     style="fill:none;stroke:#000000;stroke-width:0.40818898;stroke-miterlimit:4;stroke-dasharray:none"
     d="m 111.77035,545.36368 -0.29839,0.32823"
     id="path1601"
     inkscape:connector-curvature="0" />
  <path
     style="fill:none;stroke:#000000;stroke-width:0.40818898;stroke-miterlimit:4;stroke-dasharray:none"
     d="m 102.7291,545.54272 c -0.43075,0.43075 -0.8849,0.84516 -1.2405,1.34276 -0.90693,1.26911 -1.42135,3.04621 -0.84823,4.56538"
     id="path1599"
     inkscape:connector-curvature="0" />
  <path
     style="fill:none;stroke:#000000;stroke-width:0.40818898;stroke-miterlimit:4;stroke-dasharray:none"
     d="m 109.92032,545.81127 -0.0895,0.0895"
     id="path1597"
     inkscape:connector-curvature="0" />
  <path
     style="fill:none;stroke:#000000;stroke-width:0.40818898;stroke-miterlimit:4;stroke-dasharray:none"
     d="m 108.27917,546.02014 -0.11935,0.1492"
     id="path1595"
     inkscape:connector-curvature="0" />
  <path
     style="fill:none;stroke:#000000;stroke-width:0.40818898;stroke-miterlimit:4;stroke-dasharray:none"
     d="m 111.3526,547.21371 -0.11936,0.11935"
     id="path1593"
     inkscape:connector-curvature="0" />
  <path
     style="fill:none;stroke:#000000;stroke-width:0.40818898;stroke-miterlimit:4;stroke-dasharray:none"
     d="m 109.71145,547.45242 c -0.22102,0.26136 -0.19509,0.88443 -0.21004,1.2234 -0.005,0.10184 -0.0774,0.30949 0.002,0.39468 0.0622,0.0667 0.30242,0.0262 0.38707,0.0204 0.31576,-0.0216 1.00746,-0.002 1.22341,-0.23602"
     id="path1591"
     inkscape:connector-curvature="0" />
  <path
     style="fill:none;stroke:#000000;stroke-width:0.40818898;stroke-miterlimit:4;stroke-dasharray:none"
     d="m 108.04046,547.69113 1.55163,-0.11935"
     id="path1589"
     inkscape:connector-curvature="0" />
  <path
     style="fill:none;stroke:#000000;stroke-width:0.40818898;stroke-miterlimit:4;stroke-dasharray:none"
     d="m 113.9486,548.5863 c 0,0.40835 -0.0464,0.83249 -0.16886,1.22341 -0.0464,0.14821 -0.0772,0.32002 -0.22069,0.40721 -0.23746,0.14427 -0.73974,0.0702 -1.01289,0.0702"
     id="path1587"
     inkscape:connector-curvature="0" />
  <path
     style="fill:none;stroke:#000000;stroke-width:0.40818898;stroke-miterlimit:4;stroke-dasharray:none"
     d="m 112.75504,548.64598 -0.0895,0.0895"
     id="path1585"
     inkscape:connector-curvature="0" />
  <path
     style="fill:none;stroke:#000000;stroke-width:0.40818898;stroke-miterlimit:4;stroke-dasharray:none"
     d="m 110.99453,549.00405 -0.0896,1.13389 0.001,0.35723 0.41679,0.0134 1.10405,-0.10208"
     id="path1583"
     inkscape:connector-curvature="0" />
  <path
     style="fill:none;stroke:#000000;stroke-width:0.40818898;stroke-miterlimit:4;stroke-dasharray:none"
     d="m 109.47274,549.09357 -0.20888,0.23871"
     id="path1581"
     inkscape:connector-curvature="0" />
  <path
     style="fill:none;stroke:#000000;stroke-width:0.40818898;stroke-miterlimit:4;stroke-dasharray:none"
     d="m 113.47118,550.28713 c -0.12261,0.63217 -0.43127,1.0233 -1.01453,1.28308"
     id="path1579"
     inkscape:connector-curvature="0" />
  <path
     style="fill:none;stroke:#000000;stroke-width:0.40818898;stroke-miterlimit:4;stroke-dasharray:none"
     d="m 110.87517,550.52584 -0.20887,0.20888"
     id="path1577"
     inkscape:connector-curvature="0" />
</svg>
